<?xml version="1.0"?>
<svg xmlns="http://www.w3.org/2000/svg" id="Solid" viewBox="0 0 512 512" width="512" height="512"><path d="M456,314.909A69.169,69.169,0,0,1,386.909,384H362.464q-4.491,8.264-9.594,16H384a88.1,88.1,0,0,0,88-88,72.081,72.081,0,0,0-72-72h-8v16h5.091A58.976,58.976,0,0,1,456,314.909Z"/><path d="M64,480H448a24.042,24.042,0,0,0,22.629-16H41.371A24.042,24.042,0,0,0,64,480Z"/><path d="M278.738,448c28.064-14.989,52.019-39.559,69.355-71.186C366.35,343.509,376,304.5,376,264V240H56v24c0,40.665,9.723,79.808,28.118,113.2,17.328,31.455,41.193,55.878,69.134,70.8Z"/><path d="M104.008,208a8,8,0,0,1-4.445-14.657C115.763,182.542,120,179.253,120,168c0-8.253-10.737-17.2-21.122-25.854C85.664,131.133,72,119.747,72,104c0-20.282,10.965-27.592,27.562-38.657a8,8,0,0,1,8.876,13.313C92.237,89.456,88,92.746,88,104c0,8.252,10.737,17.2,21.122,25.854C122.336,140.866,136,152.252,136,168c0,20.281-10.965,27.59-27.562,38.655A7.962,7.962,0,0,1,104.008,208Z"/><path d="M192.008,176a8,8,0,0,1-4.445-14.657C203.763,150.542,208,147.253,208,136c0-8.253-10.737-17.2-21.122-25.854C173.664,99.133,160,87.747,160,72c0-17.2,13.23-25.1,26.026-32.742,3.128-1.867,6.362-3.8,9.536-5.915a8,8,0,0,1,8.876,13.313c-3.5,2.337-6.914,4.372-10.209,6.34C182.25,60.147,176,64.241,176,72c0,8.252,10.737,17.2,21.122,25.854C210.336,108.866,224,120.252,224,136c0,20.281-10.965,27.59-27.562,38.655A7.962,7.962,0,0,1,192.008,176Z"/><path d="M288.008,208a8,8,0,0,1-4.445-14.657C299.763,182.542,304,179.253,304,168c0-8.253-10.737-17.2-21.122-25.854C269.664,131.133,256,119.747,256,104c0-20.282,10.965-27.592,27.562-38.657a8,8,0,0,1,8.876,13.313C276.237,89.456,272,92.746,272,104c0,8.252,10.737,17.2,21.122,25.854C306.336,140.866,320,152.252,320,168c0,20.281-10.965,27.59-27.562,38.655A7.962,7.962,0,0,1,288.008,208Z"/></svg>
