<svg xmlns="http://www.w3.org/2000/svg" enable-background="new 0 0 44 40" viewBox="0 0 44 40"><polygon fill="#fff" points="38 26 10.858 26 8 8 42 8"/><path fill="#faa85f" d="M35.34,25H12L9,9h31l-2.694,14.369C37.128,24.315,36.303,25,35.34,25z"/><circle cx="17" cy="36" r="3" fill="#72c6ef"/><circle cx="35" cy="36" r="3" fill="#72c6ef"/><path fill="#00384e" d="M40,32H14c-1.654,0-3-1.346-3-3v-1h24.721c2.375,0,4.438-1.69,4.903-4.02L43.98,7.196
			c0.059-0.294-0.018-0.599-0.207-0.83C43.583,6.135,43.3,6,43,6H7.781L6.988,0.848C6.913,0.36,6.493,0,6,0H1C0.447,0,0,0.447,0,1
			s0.447,1,1,1h4.142L9,27.076V29c0,2.613,2.022,4.74,4.579,4.957C13.22,34.557,13,35.251,13,36c0,2.206,1.794,4,4,4s4-1.794,4-4
			c0-0.732-0.212-1.409-0.556-2h11.112C31.212,34.591,31,35.268,31,36c0,2.206,1.794,4,4,4s4-1.794,4-4c0-0.732-0.212-1.409-0.556-2
			H40c0.553,0,1-0.447,1-1S40.553,32,40,32z M39.581,19H35v-4h5.38L39.581,19z M33,19h-4v-4h4V19z M10.858,26l-0.769-5H15v5H10.858z
			 M17,21h4v5h-4V21z M23,21h4v5h-4V21z M23,19v-4h4v4H23z M29,21h4v5h-4V21z M29,13V8h4v5H29z M27,13h-4V8h4V13z M21,13h-4V8h4V13z
			 M21,15v4h-4v-4H21z M15,19H9.781l-0.615-4H15V19z M35.721,26H35v-5h4.181l-0.518,2.588C38.384,24.985,37.146,26,35.721,26z
			 M40.78,13H35V8h6.78L40.78,13z M15,8v5H9c-0.049,0-0.091,0.021-0.138,0.028L8.089,8H15z M19,36c0,1.103-0.897,2-2,2s-2-0.897-2-2
			s0.897-2,2-2S19,34.897,19,36z M37,36c0,1.103-0.897,2-2,2s-2-0.897-2-2s0.897-2,2-2S37,34.897,37,36z"/></svg>